<svg viewBox="0 0 16 16" fill="none" xmlns="http://www.w3.org/2000/svg">
  <g opacity="0.75">
    <path d="M14 8.5V9.5C14 9.89782 13.842 10.2794 13.5607 10.5607C13.2794 10.842 12.8978 11 12.5 11H9.5C9.36739 11 9.24021 11.0527 9.14645 11.1464C9.05268 11.2402 9 11.3674 9 11.5V12.5H8V8H9V10.092C9.16013 10.0328 9.32928 10.0017 9.5 10H12.5C12.6326 10 12.7598 9.94732 12.8536 9.85355C12.9473 9.75979 13 9.63261 13 9.5V8.5H14Z" fill="#1F1F1F" />
  </g>
  <path opacity="0.1" d="M15 7.5C15 7.79667 14.912 8.08668 14.7472 8.33336C14.5824 8.58003 14.3481 8.77229 14.074 8.88582C13.7999 8.99935 13.4983 9.02906 13.2074 8.97118C12.9164 8.9133 12.6491 8.77044 12.4393 8.56066C12.2296 8.35088 12.0867 8.08361 12.0288 7.79264C11.9709 7.50166 12.0007 7.20006 12.1142 6.92598C12.2277 6.65189 12.42 6.41762 12.6666 6.2528C12.9133 6.08797 13.2033 6 13.5 6C13.8978 6 14.2794 6.15804 14.5607 6.43934C14.842 6.72064 15 7.10218 15 7.5ZM10 14C10 14.2967 9.91203 14.5867 9.74721 14.8334C9.58238 15.08 9.34812 15.2723 9.07403 15.3858C8.79994 15.4994 8.49834 15.5291 8.20736 15.4712C7.91639 15.4133 7.64912 15.2704 7.43934 15.0607C7.22956 14.8509 7.0867 14.5836 7.02882 14.2926C6.97094 14.0017 7.00065 13.7001 7.11418 13.426C7.22771 13.1519 7.41997 12.9176 7.66665 12.7528C7.91332 12.588 8.20333 12.5 8.5 12.5C8.89783 12.5 9.27936 12.658 9.56066 12.9393C9.84197 13.2206 10 13.6022 10 14V14ZM10 6.5C10 6.89783 9.84197 7.27936 9.56066 7.56066C9.27936 7.84197 8.89783 8 8.5 8C8.10218 8 7.72065 7.84197 7.43934 7.56066C7.15804 7.27936 7 6.89783 7 6.5C7.00157 6.42218 7.00926 6.34461 7.023 6.268C7.2671 5.9675 7.47083 5.63636 7.629 5.283C7.85302 5.12322 8.11667 5.02814 8.3911 5.00817C8.66554 4.98819 8.94018 5.04408 9.18497 5.16973C9.42977 5.29538 9.63529 5.48595 9.77904 5.72057C9.92279 5.9552 9.99923 6.22484 10 6.5V6.5Z" fill="#1F1F1F" />
  <path d="M8.5 12C8.10444 12 7.71776 12.1173 7.38886 12.3371C7.05996 12.5568 6.80362 12.8692 6.65224 13.2346C6.50087 13.6001 6.46126 14.0022 6.53843 14.3902C6.6156 14.7781 6.80608 15.1345 7.08579 15.4142C7.36549 15.6939 7.72186 15.8844 8.10982 15.9616C8.49778 16.0387 8.89992 15.9991 9.26537 15.8478C9.63082 15.6964 9.94318 15.44 10.1629 15.1111C10.3827 14.7822 10.5 14.3956 10.5 14C10.5 13.4696 10.2893 12.9609 9.91421 12.5858C9.53914 12.2107 9.03043 12 8.5 12ZM8.5 15C8.30222 15 8.10888 14.9414 7.94443 14.8315C7.77998 14.7216 7.65181 14.5654 7.57612 14.3827C7.50043 14.2 7.48063 13.9989 7.51922 13.8049C7.5578 13.6109 7.65304 13.4327 7.79289 13.2929C7.93275 13.153 8.11093 13.0578 8.30491 13.0192C8.49889 12.9806 8.69996 13.0004 8.88268 13.0761C9.06541 13.1518 9.22159 13.28 9.33147 13.4444C9.44135 13.6089 9.5 13.8022 9.5 14C9.5 14.2652 9.39464 14.5196 9.20711 14.7071C9.01957 14.8946 8.76522 15 8.5 15ZM8.5 4.5C8.27537 4.5025 8.05283 4.54343 7.842 4.621C7.62626 5.46139 7.17077 6.22091 6.531 6.807C6.58976 7.18522 6.75581 7.53864 7.00944 7.82529C7.26308 8.11195 7.59364 8.31981 7.96189 8.42418C8.33014 8.52856 8.72061 8.52508 9.08694 8.41415C9.45327 8.30322 9.78007 8.0895 10.0286 7.79836C10.277 7.50723 10.4368 7.1509 10.4888 6.7717C10.5408 6.39249 10.4828 6.00632 10.3219 5.65905C10.161 5.31177 9.90376 5.01797 9.58082 4.81252C9.25787 4.60707 8.88276 4.4986 8.5 4.5ZM8.5 7.5C8.30222 7.5 8.10888 7.44135 7.94443 7.33147C7.77998 7.22159 7.65181 7.06541 7.57612 6.88268C7.50043 6.69996 7.48063 6.49889 7.51922 6.30491C7.5578 6.11093 7.65304 5.93275 7.79289 5.79289C7.93275 5.65304 8.11093 5.5578 8.30491 5.51921C8.49889 5.48063 8.69996 5.50043 8.88268 5.57612C9.06541 5.65181 9.22159 5.77998 9.33147 5.94443C9.44135 6.10888 9.5 6.30222 9.5 6.5C9.5 6.76522 9.39464 7.01957 9.20711 7.20711C9.01957 7.39464 8.76522 7.5 8.5 7.5ZM13.5 5.5C13.1044 5.5 12.7178 5.6173 12.3889 5.83706C12.06 6.05682 11.8036 6.36918 11.6522 6.73463C11.5009 7.10009 11.4613 7.50222 11.5384 7.89018C11.6156 8.27814 11.8061 8.63451 12.0858 8.91421C12.3655 9.19392 12.7219 9.3844 13.1098 9.46157C13.4978 9.53874 13.8999 9.49913 14.2654 9.34776C14.6308 9.19638 14.9432 8.94004 15.1629 8.61114C15.3827 8.28224 15.5 7.89556 15.5 7.5C15.5 6.96957 15.2893 6.46086 14.9142 6.08579C14.5391 5.71071 14.0304 5.5 13.5 5.5V5.5ZM13.5 8.5C13.3022 8.5 13.1089 8.44135 12.9444 8.33147C12.78 8.22159 12.6518 8.06541 12.5761 7.88268C12.5004 7.69996 12.4806 7.49889 12.5192 7.30491C12.5578 7.11093 12.653 6.93275 12.7929 6.79289C12.9327 6.65304 13.1109 6.5578 13.3049 6.51921C13.4989 6.48063 13.7 6.50043 13.8827 6.57612C14.0654 6.65181 14.2216 6.77998 14.3315 6.94443C14.4414 7.10888 14.5 7.30222 14.5 7.5C14.5 7.76522 14.3946 8.01957 14.2071 8.20711C14.0196 8.39464 13.7652 8.5 13.5 8.5Z" fill="#1F1F1F" />
  <path d="M2 4H0V3H2L2.5 3.5L2 4ZM2.791 4.207V4.914L1.38 6.329L0.673 5.623L2.085 4.206L2.791 4.207ZM4 0V2L3.5 2.5L3 2V0H4ZM2.8 2.085V2.792H2.088L0.671 1.38L1.378 0.673L2.8 2.085ZM4.922 2.794H4.208V2.088L5.62 0.671L6.328 1.378L4.922 2.794ZM4 5V7H3V5L3.5 4.5L4 5ZM5 3H7V4H5L4.5 3.5L5 3ZM4.206 4.916V4.208H4.912L6.329 5.62L5.622 6.328L4.206 4.916Z" fill="#B27D00" />
</svg>