<svg viewBox="0 0 16 16" fill="none" xmlns="http://www.w3.org/2000/svg">
  <g clip-path="url(#clip0_820_6875)">
    <path opacity="0.25" d="M14 14.341H13V7.841H14V14.341Z" fill="#B27D00" />
    <path opacity="0.1" d="M13.5 5.341V7.341H8.5L7.5 8.341H5.179L8.179 5.341H13.5ZM0.5 6.159V14.341L2.5 8.341H2.681L0.5 6.159Z" fill="#B27D00" />
    <path opacity="0.25" d="M15.5 7.341L13.5 14.341H0.5L2.5 8.341H2.681L2.871 8.53C3.15225 8.8109 3.5335 8.96868 3.931 8.96868C4.3285 8.96868 4.70975 8.8109 4.991 8.53L5.179 8.342H7.5L8.5 7.342L15.5 7.341Z" fill="#B27D00" />
    <path d="M15.892 7.47L14.024 14.47L13.541 14.841H0.5L0 14.341V5.659L0.459 6.119L1 6.659V11.259L2 8.183L2.3 7.964L2.867 8.53C2.99905 8.66119 3.15436 8.76665 3.325 8.841H2.835L1.168 13.841H13.157L14.757 7.841H8.682L7.828 8.7L7.475 8.846H4.531C4.70251 8.77171 4.85855 8.66588 4.991 8.534L5.679 7.846H7.268L8.121 6.992L8.475 6.846H13V5.846H7.679L8.529 4.996C8.56531 4.94805 8.5987 4.89796 8.629 4.846H13.5L14 5.346V6.846H15.408L15.892 7.47Z" fill="#B27D00" />
    <path d="M7.822 4.284L4.284 7.822C4.19024 7.91574 4.06308 7.96839 3.9305 7.96839C3.79792 7.96839 3.67076 7.91574 3.577 7.822L0.146 4.392C0.0522648 4.29824 -0.000392914 4.17108 -0.000392914 4.0385C-0.000392914 3.90592 0.0522648 3.77876 0.146 3.685L2.528 1.3L3.402 2.174C3.37153 2.24926 3.35623 2.32981 3.357 2.411C3.35811 2.53049 3.39436 2.64702 3.46122 2.74606C3.52807 2.8451 3.62259 2.92229 3.733 2.968V5.153C3.65831 5.1839 3.59038 5.22907 3.533 5.286C3.44828 5.37115 3.39067 5.47949 3.36746 5.59735C3.34425 5.7152 3.35647 5.8373 3.40257 5.94822C3.44868 6.05914 3.52661 6.15391 3.62653 6.22058C3.72645 6.28726 3.84388 6.32284 3.964 6.32284C4.08412 6.32284 4.20155 6.28726 4.30147 6.22058C4.40139 6.15391 4.47932 6.05914 4.52543 5.94822C4.57153 5.8373 4.58375 5.7152 4.56054 5.59735C4.53733 5.47949 4.47973 5.37115 4.395 5.286C4.34843 5.23948 4.29476 5.20066 4.236 5.171V3.013L5.059 3.835C5.01326 3.94644 5.00154 4.06892 5.02531 4.18701C5.04908 4.3051 5.10729 4.41351 5.19258 4.49857C5.27788 4.58363 5.38645 4.64153 5.50461 4.66497C5.62277 4.68841 5.74522 4.67634 5.85653 4.63029C5.96783 4.58423 6.06302 4.50626 6.13007 4.40618C6.19712 4.30611 6.23305 4.18843 6.23331 4.06797C6.23358 3.94751 6.19817 3.82967 6.13156 3.7293C6.06494 3.62894 5.97011 3.55054 5.859 3.504C5.79066 3.47594 5.71784 3.46036 5.644 3.458C5.56996 3.45606 5.49615 3.46723 5.426 3.491L4.543 2.611C4.58017 2.50342 4.58644 2.38757 4.56111 2.2766C4.53577 2.16564 4.47985 2.06399 4.39968 1.98319C4.31951 1.9024 4.2183 1.84568 4.10753 1.81949C3.99676 1.7933 3.88087 1.79867 3.773 1.835L2.881 0.95L3.681 0.15C3.77476 0.0562645 3.90192 0.0036068 4.0345 0.0036068C4.16708 0.0036068 4.29424 0.0562645 4.388 0.15L7.818 3.581C7.91105 3.67407 7.96366 3.80007 7.96441 3.93168C7.96516 4.06328 7.91399 4.18988 7.822 4.284V4.284Z" fill="#F05133" />
    <path d="M3.4 2.177L2.528 1.3L2.881 0.950001L3.77 1.835C3.87787 1.79867 3.99376 1.7933 4.10453 1.81949C4.21529 1.84569 4.3165 1.9024 4.39668 1.98319C4.47685 2.06399 4.53277 2.16564 4.5581 2.2766C4.58344 2.38757 4.57717 2.50342 4.54 2.611L5.423 3.491C5.49315 3.46723 5.56696 3.45606 5.641 3.458C5.71484 3.46036 5.78766 3.47594 5.856 3.504C5.9671 3.55054 6.06194 3.62894 6.12856 3.7293C6.19517 3.82967 6.23057 3.94751 6.23031 4.06797C6.23005 4.18843 6.19412 4.30611 6.12707 4.40618C6.06002 4.50626 5.96483 4.58423 5.85353 4.63029C5.74222 4.67634 5.61977 4.68841 5.50161 4.66497C5.38345 4.64153 5.27488 4.58363 5.18958 4.49857C5.10429 4.41351 5.04608 4.3051 5.02231 4.18701C4.99854 4.06892 5.01026 3.94644 5.056 3.835L4.233 3.013V5.171C4.29176 5.20067 4.34543 5.23948 4.392 5.286C4.44913 5.34321 4.49434 5.41119 4.525 5.486C4.57032 5.59695 4.58177 5.71884 4.55793 5.83629C4.53408 5.95374 4.476 6.06151 4.391 6.146C4.3344 6.20253 4.26722 6.24737 4.19329 6.27794C4.11937 6.30851 4.04014 6.32422 3.96015 6.32417C3.88015 6.32413 3.80094 6.30832 3.72705 6.27767C3.65316 6.24701 3.58603 6.2021 3.5295 6.1455C3.47297 6.0889 3.42813 6.02172 3.39756 5.94779C3.36699 5.87387 3.35128 5.79464 3.35133 5.71465C3.35137 5.63465 3.36718 5.55544 3.39783 5.48155C3.42849 5.40766 3.4734 5.34053 3.53 5.284C3.58738 5.22707 3.65531 5.1819 3.73 5.151V2.971C3.61959 2.92529 3.52507 2.8481 3.45821 2.74906C3.39136 2.65002 3.35511 2.53349 3.354 2.414C3.35355 2.33274 3.36918 2.25219 3.4 2.177V2.177Z" fill="white" />
  </g>
  <defs>
    <clipPath id="clip0_820_6875">
      <rect width="16" height="16" fill="white" />
    </clipPath>
  </defs>
</svg>